# xmcd
#
# Track frame offsets:
#	150
#	20316
#	38286
#	53915
#	70800
#	93661
#	108821
#	128184
#	146263
#	162632
#	181454
#	195750
#	214317
#	233022
#	250933
#	269428
#	283526
#	301409
#	324464
#	339947
#
# Disc length: 4784 seconds
#
# Revision: 1
# Processed by: cddbd v1.5.2PL0 Copyright (c) Steve Scherf et al.
# Submitted via: audiograbber 1.83.01
#
DISCID=1412ae14
DTITLE=Игоь Николаев - Grand Collection
DYEAR=2008
DGENRE=Лирика
TTITLE0=Здравствуй
TTITLE1=Незнакомка
TTITLE2=Дельфин и русалка
TTITLE3=Приходила боль
TTITLE4=Прости и отпусти
TTITLE5=Пять причин
TTITLE6=Любить её так, как я
TTITLE7=Пятнадцать лет
TTITLE8=Самая родная
TTITLE9=Мастер и маргарита
TTITLE10=Бедный моцарт
TTITLE11=Малиновое вино
TTITLE12=Выпьем за любовь
TTITLE13=На обложке журнала
TTITLE14=Поздравляю
TTITLE15=Мельница
TTITLE16=Рояль в ночи
TTITLE17=Моя последняя нежность
TTITLE18=Миллион красивых женщин
TTITLE19=Храни вас бог
EXTD=
EXTT0=
EXTT1=
EXTT2=
EXTT3=
EXTT4=
EXTT5=
EXTT6=
EXTT7=
EXTT8=
EXTT9=
EXTT10=
EXTT11=
EXTT12=
EXTT13=
EXTT14=
EXTT15=
EXTT16=
EXTT17=
EXTT18=
EXTT19=
PLAYORDER=
